<svg width="62" height="47" viewBox="0 0 62 47" fill="none" xmlns="http://www.w3.org/2000/svg">
<path d="M60.0379 1.3848C59.4657 0.944855 58.7841 0.595847 58.0327 0.358103C57.2813 0.120359 56.4752 -0.00136809 55.6614 1.15981e-05H38.695C37.582 0.00158888 36.5148 0.336707 35.7249 0.932645L1.80732 26.7086C0.649986 27.5901 0 28.7846 0 30.03C0 31.2753 0.649986 32.4698 1.80732 33.3514L17.9553 45.6256C19.1153 46.5057 20.6873 47 22.3262 47C23.9652 47 25.5372 46.5057 26.6972 45.6256L60.601 19.8602C61.3865 19.2607 61.829 18.4497 61.8321 17.6036V4.6999C61.8371 4.0845 61.6811 3.47449 61.373 2.90536C61.065 2.33624 60.6111 1.81936 60.0379 1.3848ZM48.5825 13.4283C47.709 13.4283 46.8551 13.2314 46.1288 12.8625C45.4025 12.4936 44.8364 11.9693 44.5022 11.3559C44.1679 10.7425 44.0804 10.0675 44.2508 9.41626C44.4212 8.76506 44.8419 8.16689 45.4595 7.69739C46.0772 7.2279 46.8641 6.90817 47.7209 6.77864C48.5776 6.6491 49.4656 6.71559 50.2726 6.96967C51.0796 7.22376 51.7694 7.65404 52.2547 8.20611C52.74 8.75818 52.999 9.40723 52.999 10.0712C52.999 10.9615 52.5337 11.8154 51.7054 12.445C50.8772 13.0746 49.7538 13.4283 48.5825 13.4283Z" fill="#FF5733"/>
</svg>
