<svg width="63" height="37" viewBox="0 0 63 37" fill="none" xmlns="http://www.w3.org/2000/svg">
<path d="M62.917 28.7762H58.4229C58.4229 26.1822 57.9847 23.6294 57.1219 21.1854L61.4002 19.9213C62.4069 22.7743 62.917 25.7547 62.917 28.7762ZM62.5799 6.1211L57.1061 11.1282C56.2635 11.8992 55.1206 12.3324 53.9288 12.3326C53.0411 12.3305 52.1739 12.0882 51.4364 11.6361C50.6989 11.1841 50.1241 10.5425 49.7844 9.79229C49.4447 9.04204 49.3553 8.21662 49.5274 7.41997C49.6995 6.62331 50.1254 5.89105 50.7515 5.31537L56.2275 0.306261C55.479 0.113649 54.7063 0.0107018 53.9288 0C48.9719 0 44.9407 3.68952 44.9407 8.22177C44.9407 9.74279 45.4238 11.1508 46.2148 12.3738L35.9952 21.7219C34.6248 20.9663 33.0564 20.5636 31.4562 20.5565C26.5015 20.5565 22.4681 24.2439 22.4681 28.7782C22.4681 33.3125 26.5015 37 31.4562 37C36.4109 37 40.4444 33.3105 40.4444 28.7782C40.4444 27.2572 39.9635 25.8513 39.1726 24.6262L49.3921 15.2802C50.7619 16.0354 52.3294 16.4381 53.9288 16.4456C58.8858 16.4456 62.917 12.7561 62.917 8.22382C62.9045 7.51253 62.7912 6.80572 62.5799 6.1211ZM31.4585 32.8871C28.98 32.8871 26.9644 31.0433 26.9644 28.7762C26.9644 26.509 28.98 24.6653 31.4585 24.6653C33.937 24.6653 35.9526 26.5111 35.9526 28.7762C35.9526 31.0413 33.937 32.8871 31.4585 32.8871ZM4.49407 28.7762H0C0 12.9082 14.1114 0 31.4585 0C34.7616 0 38.0198 0.466586 41.1365 1.38742L39.7568 5.30098C37.0756 4.5102 34.2756 4.10863 31.4585 4.11088C16.5899 4.11088 4.49407 15.1753 4.49407 28.7762Z" fill="#FF5733"/>
</svg>
