<svg width="41" height="42" viewBox="0 0 41 42" fill="none" xmlns="http://www.w3.org/2000/svg">
<path d="M38.4826 23.4255L35.6782 14.8071C35.2714 13.5523 34.4889 12.4608 33.4419 11.6876C32.3949 10.9144 31.1367 10.4988 29.8459 10.5H11.154C9.86335 10.4988 8.60511 10.9144 7.55811 11.6876C6.51112 12.4608 5.72862 13.5523 5.3218 14.8071L2.5174 23.4255C1.77166 23.7451 1.1348 24.2835 0.686887 24.9729C0.238975 25.6623 -9.85846e-07 26.4719 0 27.3V33.6C0 35.1498 0.8282 36.4896 2.05 37.2183V39.9C2.05 40.457 2.26598 40.9911 2.65043 41.3849C3.03488 41.7788 3.55631 42 4.1 42H6.15C6.69369 42 7.21512 41.7788 7.59957 41.3849C7.98402 40.9911 8.2 40.457 8.2 39.9V37.8H32.8V39.9C32.8 40.457 33.016 40.9911 33.4004 41.3849C33.7849 41.7788 34.3063 42 34.85 42H36.9C37.4437 42 37.9651 41.7788 38.3496 41.3849C38.734 40.9911 38.95 40.457 38.95 39.9V37.2183C39.572 36.8529 40.0889 36.3261 40.4488 35.6908C40.8087 35.0556 40.9988 34.3345 41 33.6V27.3C41 25.5549 39.9606 24.0618 38.4826 23.4255ZM11.154 14.7H29.8439C30.2743 14.6999 30.6939 14.8386 31.043 15.0964C31.3922 15.3542 31.6533 15.7181 31.7893 16.1364L34.0567 23.1H6.94335L9.2086 16.1364C9.48945 15.2775 10.2725 14.7 11.154 14.7ZM7.175 33.6C6.77105 33.5999 6.37108 33.5182 5.99793 33.3597C5.62479 33.2013 5.28576 32.969 5.00022 32.6763C4.42355 32.0852 4.09973 31.2836 4.1 30.4479C4.10027 29.6122 4.42461 28.8108 5.00167 28.2201C5.57873 27.6293 6.36124 27.2976 7.17705 27.2979C7.99286 27.2982 8.77515 27.6304 9.35183 28.2216C9.9285 28.8127 10.2523 29.6143 10.252 30.45C10.2518 31.2857 9.92744 32.0871 9.35038 32.6778C8.77332 33.2686 7.99081 33.6003 7.175 33.6ZM33.825 33.6C33.0092 33.5997 32.2269 33.2675 31.6502 32.6763C31.0735 32.0852 30.7497 31.2836 30.75 30.4479C30.7503 29.6122 31.0746 28.8108 31.6517 28.2201C32.2287 27.6293 33.0112 27.2976 33.827 27.2979C34.6429 27.2982 35.4252 27.6304 36.0018 28.2216C36.5785 28.8127 36.9023 29.6143 36.902 30.45C36.9018 31.2857 36.5774 32.0871 36.0004 32.6778C35.4233 33.2686 34.6408 33.6003 33.825 33.6ZM6.71785 6.3C7.4292 7.5495 8.7371 8.4 10.25 8.4C11.7629 8.4 13.0708 7.5495 13.7821 6.3H27.2199C27.9292 7.5495 29.2371 8.4 30.75 8.4C32.2629 8.4 33.5708 7.5495 34.2821 6.3H30.75V2.1H34.2821C33.5708 0.8505 32.2629 0 30.75 0C29.2371 0 27.9292 0.8505 27.2178 2.1H13.7821C13.0708 0.8505 11.7629 0 10.25 0C8.7371 0 7.4292 0.8505 6.71785 2.1H10.25V6.3H6.71785Z" fill="#FF5733"/>
</svg>
