<svg width="45" height="40" viewBox="0 0 45 40" fill="none" xmlns="http://www.w3.org/2000/svg">
<path d="M12.5573 40C1.65742 35.3811 -1.21228 31.0093 0.428412 25.0383C1.63964 20.6292 5.60575 17.0421 5.98604 12.6415C7.68024 14.9596 8.38815 16.6312 8.57746 19.0536C13.9659 14.0898 17.5266 7.2182 17.7375 0C17.7375 0 31.7723 6.20033 32.6932 15.566C33.9015 13.6356 34.5097 10.5696 33.3014 8.58253C36.926 10.5697 58.1411 28.2105 30.4279 40C35.6382 32.3721 31.772 22.0796 22.7254 17.3261C23.3296 19.37 22.2703 26.9934 18.2681 30.3432C19.377 24.746 17.2129 22.3793 17.2129 22.3793C17.2129 22.3793 16.4702 25.5144 13.5883 28.6815C10.9567 31.5735 9.13326 34.643 12.5573 40Z" fill="#FF5733"/>
</svg>
